<svg xmlns="http://www.w3.org/2000/svg" viewBox="0 0 1640 664" width="1640" height="664">
	<style>
		tspan { white-space:pre }
	</style>
	<path id="Project " fill="#000000" d="M5.28 214.44L28.8 214.44L28.8 397.56L5.28 397.56L5.28 453L140.52 453L140.52 397.56L114.9 397.56L114.9 332.46L146.82 332.46C206.88 332.46 257.28 304.74 257.28 249.3C257.28 201.42 238.8 159.42 141.36 159.42L5.28 159.42ZM135.9 214.02C160.26 214.02 174.96 227.46 174.96 252.24C174.96 274.5 158.16 287.1 133.8 287.1L114.9 287.1L114.9 214.02ZM392.94 397.98L371.94 397.98L371.94 354.72C371.94 317.76 393.36 308.1 431.16 308.1L431.16 235.44C387.9 235.44 376.98 249.72 366.06 269.88L353.46 243L274.5 243L274.5 297.6L292.56 297.6L292.56 397.98L274.08 397.98L274.08 453L392.94 453ZM559.26 458.46C623.1 458.46 674.76 418.56 673.92 348.84C672.66 278.7 623.52 238.8 557.16 237.96C499.2 237.96 442.5 277.02 442.08 347.16C441.24 421.5 499.2 458.46 559.26 458.46ZM559.26 404.7C541.62 404.7 528.18 382.02 528.18 347.58C528.18 316.92 540.78 292.56 557.16 292.56C576.9 292.98 587.82 317.34 587.82 348.84C587.82 380.34 577.32 404.7 559.26 404.7ZM726.42 181.68C726.42 201.84 745.32 224.1 771.78 224.1C801.6 224.1 817.98 204.78 817.98 181.68C817.98 162.36 800.76 138.84 771.78 138.84C742.38 138.84 726.42 162.36 726.42 181.68ZM732.3 423.6C732.3 443.76 733.14 484.5 684.42 484.5L684.42 540.78C796.14 540.78 812.1 475.68 812.1 423.6L812.1 243L714.66 243L714.66 297.6L732.3 297.6ZM1015.8 383.28C993.12 402.18 971.28 403.44 957 403.44C921.72 403.44 916.26 380.34 913.74 369L1046.04 369C1054.86 345.06 1050.24 312.72 1045.2 298.02C1033.02 262.74 994.8 237.12 944.82 237.12C881.4 237.12 831.84 277.86 831.84 346.74C831.84 427.38 890.64 460.56 942.72 460.56C986.4 460.56 1020 450.9 1051.08 424.02ZM947.34 293.82C974.22 293.82 978 311.46 978.42 327.42L915 327.42C915.84 316.92 921.72 293.82 947.34 293.82ZM1270.32 337.92L1270.32 243L1220.76 243L1213.62 263.16C1206.48 254.76 1189.68 239.22 1161.12 239.22C1107.36 239.22 1057.8 272.4 1057.8 346.74C1057.8 421.5 1111.56 458.88 1173.3 458.88C1218.66 458.88 1256.46 437.46 1276.2 416.04L1239.24 373.2C1225.38 388.32 1210.68 397.56 1188.42 397.14C1161.54 396.72 1145.16 374.88 1145.16 347.58C1145.16 320.28 1157.34 293.82 1182.12 293.82C1201.44 293.82 1207.74 317.76 1208.58 337.92ZM1286.7 297.6L1309.38 297.6L1309.38 372.36C1310.64 426.12 1312.74 460.56 1375.74 460.56C1385.4 460.56 1413.96 457.62 1426.56 452.58L1426.56 398.82C1418.58 402.18 1405.56 405.96 1400.1 405.96C1383.72 405.96 1386.66 386.64 1386.66 372.36L1386.66 297.6L1426.56 297.6L1426.56 243L1386.66 243L1386.66 179.58L1309.38 204.36L1309.38 243L1286.7 243ZM1491.66 453L1495.44 427.38C1505.52 443.34 1529.46 458.04 1559.7 458.04C1600.44 458.04 1637.82 434.52 1637.82 395.04C1637.82 350.94 1602.12 338.76 1570.2 327.84C1543.32 318.6 1518.54 313.56 1518.54 301.8C1518.54 291.3 1526.1 286.68 1534.92 286.68C1555.92 286.68 1577.76 300.96 1577.76 318.6L1632.36 318.6L1632.36 243L1580.7 243L1577.34 270.72C1568.52 252.66 1543.32 237.96 1514.76 237.96C1484.94 237.96 1440.84 256.02 1440.84 298.86C1440.84 338.34 1468.14 355.98 1496.7 366.06C1526.94 376.56 1558.44 378.66 1558.44 391.26C1558.44 403.02 1548.36 405.54 1539.96 405.54C1527.36 405.54 1495.44 399.66 1495.44 377.4L1439.16 377.4L1439.16 453Z" />
</svg>